<?xml version="1.0" encoding="UTF-8" standalone="no"?>
<!-- Created with Inkscape (http://www.inkscape.org/) -->

<svg
   sodipodi:docname="cafevdbmembers-inverted.svg"
   inkscape:version="1.1.1 (3bf5ae0d25, 2021-09-20)"
   version="1.1"
   id="svg2"
   height="100"
   width="100"
   xmlns:inkscape="http://www.inkscape.org/namespaces/inkscape"
   xmlns:sodipodi="http://sodipodi.sourceforge.net/DTD/sodipodi-0.dtd"
   xmlns="http://www.w3.org/2000/svg"
   xmlns:svg="http://www.w3.org/2000/svg"
   xmlns:rdf="http://www.w3.org/1999/02/22-rdf-syntax-ns#"
   xmlns:cc="http://creativecommons.org/ns#"
   xmlns:dc="http://purl.org/dc/elements/1.1/">
  <sodipodi:namedview
     id="base"
     pagecolor="#ffffff"
     bordercolor="#666666"
     borderopacity="1.0"
     inkscape:pageopacity="0"
     inkscape:pageshadow="2"
     inkscape:zoom="8.2286854"
     inkscape:cx="49.947225"
     inkscape:cy="30.563813"
     inkscape:document-units="px"
     inkscape:current-layer="g2999"
     showgrid="false"
     units="pt"
     inkscape:window-width="3840"
     inkscape:window-height="2003"
     inkscape:window-x="2160"
     inkscape:window-y="721"
     inkscape:window-maximized="1"
     showborder="true"
     inkscape:showpageshadow="true"
     inkscape:pagecheckerboard="0"
     fit-margin-top="0"
     fit-margin-left="0"
     fit-margin-right="0"
     fit-margin-bottom="0">
    <sodipodi:guide
       id="guide3773"
       orientation="0,250"
       position="39.238815,-3.1640626e-05"
       inkscape:locked="false" />
    <sodipodi:guide
       id="guide3775"
       orientation="-250,0"
       position="289.23882,-3.1640626e-05"
       inkscape:locked="false" />
    <sodipodi:guide
       id="guide3777"
       orientation="0,-250"
       position="289.23882,249.99997"
       inkscape:locked="false" />
    <sodipodi:guide
       id="guide3779"
       orientation="250,0"
       position="39.238815,249.99997"
       inkscape:locked="false" />
  </sodipodi:namedview>
  <defs
     id="defs4">
    <filter
       style="color-interpolation-filters:sRGB;"
       inkscape:label="Invert"
       id="filter907"
       x="0"
       y="0"
       width="1"
       height="1">
      <feColorMatrix
         values="0 0 0 0 1  0 0 0 0 1  0 0 0 0 1  0 0 0 1 0"
         result="color2"
         id="feColorMatrix905" />
    </filter>
  </defs>
  <metadata
     id="metadata7">
    <rdf:RDF>
      <cc:Work
         rdf:about="">
        <dc:format>image/svg+xml</dc:format>
        <dc:type
           rdf:resource="http://purl.org/dc/dcmitype/StillImage" />
      </cc:Work>
    </rdf:RDF>
  </metadata>
  <g
     transform="translate(39.238815,-991.20789)"
     id="layer1"
     inkscape:groupmode="layer"
     inkscape:label="Layer 1">
    <g
       id="g3769"
       inkscape:export-filename="/home/claus/camerata/logo/logo-greyf256x256.png"
       inkscape:export-xdpi="376.75"
       inkscape:export-ydpi="376.75">
      <g
         id="g2999"
         style="fill:#740502;fill-opacity:1"
         transform="translate(-70.60597,122.68646)">
        <g
           id="g921"
           transform="translate(0.03058538,19.422856)"
           style="filter:url(#filter907)">
          <text
             xml:space="preserve"
             style="font-style:normal;font-variant:normal;font-weight:normal;font-stretch:normal;line-height:0%;font-family:Arial;-inkscape-font-specification:Arial;text-align:start;letter-spacing:0px;word-spacing:0px;writing-mode:lr-tb;text-anchor:start;fill:#808080;fill-opacity:1;stroke:none"
             x="19.12524"
             y="1052.3622"
             id="text2993"
             transform="translate(70.60597,-122.68646)"><tspan
               sodipodi:role="line"
               id="tspan2995"
               x="19.12524"
               y="1052.3622"
               style="font-style:normal;font-variant:normal;font-weight:normal;font-stretch:normal;font-size:84px;line-height:125%;font-family:Arial;-inkscape-font-specification:Arial;text-align:start;writing-mode:lr-tb;text-anchor:start;fill:#808080;fill-opacity:1">f</tspan></text>
          <text
             id="text2985"
             y="924.71118"
             x="68.459396"
             style="font-style:normal;font-variant:normal;font-weight:normal;font-stretch:normal;line-height:0%;font-family:Arial;-inkscape-font-specification:Arial;text-align:start;letter-spacing:0px;word-spacing:0px;writing-mode:lr-tb;text-anchor:start;fill:#740502;fill-opacity:1;stroke:none"
             xml:space="preserve"><tspan
               y="924.71118"
               x="68.459396"
               id="tspan2987"
               sodipodi:role="line"
               style="font-size:72px;line-height:1.25">c</tspan></text>
          <text
             id="text2989"
             y="924.77246"
             x="94.321609"
             style="font-style:normal;font-variant:normal;font-weight:normal;font-stretch:normal;line-height:0%;font-family:Arial;-inkscape-font-specification:Arial;text-align:start;letter-spacing:0px;word-spacing:0px;writing-mode:lr-tb;text-anchor:start;fill:#740502;fill-opacity:1;stroke:none"
             xml:space="preserve"><tspan
               y="924.77246"
               x="94.321609"
               id="tspan2991"
               sodipodi:role="line"
               style="font-size:72px;line-height:1.25">a</tspan></text>
          <g
             aria-label="@"
             id="text1000"
             style="font-weight:bold;font-size:35.9492px;line-height:1;font-family:Arial;-inkscape-font-specification:'Arial, Bold';fill:#000000;stroke-width:2.24682"
             transform="matrix(1.1588424,0,0,1.1588424,-26.716767,-146.93154)">
            <path
               d="m 80.243863,917.62651 h 3.738857 q -1.755332,3.56332 -5.388869,5.58195 -4.160137,2.31704 -10.145819,2.31704 -5.792596,0 -10.005393,-1.96597 -4.212797,-1.94842 -6.266535,-5.75749 -2.053739,-3.82662 -2.053739,-8.32027 0,-4.93248 2.334592,-9.18039 2.334592,-4.26545 6.389409,-6.38941 4.054816,-2.1415 9.268153,-2.1415 4.423436,0 7.863887,1.72022 3.440451,1.72023 5.248443,4.89738 1.825545,3.1596 1.825545,6.91601 0,4.47609 -2.755871,8.09208 -3.458004,4.56386 -8.864427,4.56386 -1.456926,0 -2.194165,-0.50904 -0.737239,-0.50905 -0.982986,-1.49204 -2.071292,2.00108 -4.774503,2.00108 -2.913851,0 -4.844716,-2.00108 -1.913312,-2.01863 -1.913312,-5.35376 0,-4.12503 2.317038,-7.53037 2.808531,-4.14259 7.196861,-4.14259 3.124491,0 4.616523,2.38725 l 0.438833,-1.94841 h 4.634077 l -2.650551,12.58573 q -0.245747,1.19362 -0.245747,1.54469 0,0.43883 0.193087,0.66702 0.21064,0.21064 0.491493,0.21064 0.842559,0 2.176611,-1.01809 1.790439,-1.33405 2.896298,-3.58088 1.105859,-2.24682 1.105859,-4.65163 0,-4.31811 -3.124491,-7.21441 -3.124491,-2.91385 -8.724,-2.91385 -4.75695,0 -8.074527,1.94842 -3.300024,1.93086 -4.985143,5.45908 -1.667565,3.51066 -1.667565,7.31973 0,3.70376 1.860652,6.74048 1.878205,3.03672 5.248442,4.42344 3.387791,1.40426 7.741015,1.40426 4.195243,0 7.214414,-1.17607 3.019171,-1.15852 4.86227,-3.49311 z m -18.975139,-7.21442 q 0,2.22928 0.895219,3.28248 0.912773,1.05319 2.246825,1.05319 1.000539,0 1.878205,-0.49149 0.667026,-0.35106 1.316499,-1.10586 0.930326,-1.07075 1.597352,-3.12449 0.68458,-2.05374 0.68458,-3.82662 0,-1.98353 -0.930326,-3.03673 -0.912773,-1.07075 -2.317038,-1.07075 -1.509586,0 -2.790978,1.17607 -1.281393,1.15852 -1.930865,3.31758 -0.649473,2.15906 -0.649473,3.82662 z"
               id="path836"
               style="fill:#000000" />
          </g>
        </g>
      </g>
    </g>
  </g>
</svg>
